<svg width="100%" height="100%" id="svg" viewBox="0 0 1440 590" xmlns="http://www.w3.org/2000/svg" class="transition duration-300 ease-in-out delay-150">
    <defs>
        <linearGradient id="gradient" x1="8%" y1="77%" x2="92%" y2="23%">
            <stop offset="5%" stop-color="#5c0c0d"></stop>
            <stop offset="95%" stop-color="#9b2c1f"></stop>
        </linearGradient>
    </defs>
    <path d="M 0,600 C 0,600 0,150 0,150 C 56.95897435897436,153.39999999999998 113.91794871794872,156.79999999999998 203,152 C 292.0820512820513,147.20000000000002 413.2871794871795,134.20000000000002 501,127 C 588.7128205128205,119.79999999999998 642.9333333333333,118.39999999999998 725,131 C 807.0666666666667,143.60000000000002 916.9794871794873,170.20000000000002 987,161 C 1057.0205128205127,151.79999999999998 1087.148717948718,106.8 1156,99 C 1224.851282051282,91.2 1332.425641025641,120.6 1440,150 C 1440,150 1440,600 1440,600 Z" stroke="none" stroke-width="0" fill="url(#gradient)" fill-opacity="0.4" class="transition-all duration-300 ease-in-out delay-150 path-0" transform="rotate(-180 720 300)"></path><defs><linearGradient id="gradient" x1="8%" y1="77%" x2="92%" y2="23%"><stop offset="5%" stop-color="#5c0c0d"></stop><stop offset="95%" stop-color="#9b2c1f"></stop></linearGradient></defs><path d="M 0,600 C 0,600 0,300 0,300 C 93.425641025641,277.8 186.851282051282,255.60000000000002 266,272 C 345.148717948718,288.4 410.02051282051286,343.4 486,338 C 561.9794871794871,332.6 649.0666666666666,266.8 736,252 C 822.9333333333334,237.2 909.7128205128204,273.40000000000003 986,277 C 1062.2871794871796,280.59999999999997 1128.0820512820515,251.6 1202,250 C 1275.9179487179485,248.4 1357.9589743589743,274.2 1440,300 C 1440,300 1440,600 1440,600 Z" stroke="none" stroke-width="0" fill="url(#gradient)" fill-opacity="0.53" class="transition-all duration-300 ease-in-out delay-150 path-1" transform="rotate(-180 720 300)"></path><defs><linearGradient id="gradient" x1="8%" y1="77%" x2="92%" y2="23%"><stop offset="5%" stop-color="#5c0c0d"></stop><stop offset="95%" stop-color="#9b2c1f"></stop></linearGradient></defs><path d="M 0,600 C 0,600 0,450 0,450 C 61.794871794871796,442.4666666666667 123.58974358974359,434.93333333333334 214,447 C 304.4102564102564,459.06666666666666 423.43589743589746,490.73333333333335 518,481 C 612.5641025641025,471.26666666666665 682.6666666666667,420.1333333333334 741,411 C 799.3333333333333,401.8666666666666 845.8974358974358,434.7333333333334 923,450 C 1000.1025641025642,465.2666666666666 1107.7435897435898,462.93333333333334 1199,460 C 1290.2564102564102,457.06666666666666 1365.128205128205,453.5333333333333 1440,450 C 1440,450 1440,600 1440,600 Z" stroke="none" stroke-width="0" fill="url(#gradient)" fill-opacity="1" class="transition-all duration-300 ease-in-out delay-150 path-2" transform="rotate(-180 720 300)">
    </path>
</svg>